<?xml version="1.0" encoding="UTF-8" standalone="no"?>
<!-- Created with Inkscape (http://www.inkscape.org/) -->

<svg
   xmlns:dc="http://purl.org/dc/elements/1.1/"
   xmlns:cc="http://creativecommons.org/ns#"
   xmlns:rdf="http://www.w3.org/1999/02/22-rdf-syntax-ns#"
   xmlns:svg="http://www.w3.org/2000/svg"
   xmlns="http://www.w3.org/2000/svg"
   xmlns:sodipodi="http://sodipodi.sourceforge.net/DTD/sodipodi-0.dtd"
   xmlns:inkscape="http://www.inkscape.org/namespaces/inkscape"
   width="1728.3749"
   height="667.96881"
   id="svg2"
   version="1.1"
   inkscape:version="0.48.4 r9939"
   sodipodi:docname="                            1">
  <defs
     id="defs4" />
  <sodipodi:namedview
     id="base"
     pagecolor="#ffffff"
     bordercolor="#666666"
     borderopacity="1.0"
     inkscape:pageopacity="0.0"
     inkscape:pageshadow="2"
     inkscape:zoom="0.49497475"
     inkscape:cx="1021.8026"
     inkscape:cy="223.67962"
     inkscape:document-units="px"
     inkscape:current-layer="layer1"
     showgrid="false"
     showguides="true"
     inkscape:guide-bbox="true"
     fit-margin-top="0"
     fit-margin-left="0"
     fit-margin-right="0"
     fit-margin-bottom="0"
     inkscape:window-width="1920"
     inkscape:window-height="1018"
     inkscape:window-x="-8"
     inkscape:window-y="-8"
     inkscape:window-maximized="1">
    <sodipodi:guide
       orientation="0,1"
       position="1354.2723,-15.53624"
       id="guide2996" />
  </sodipodi:namedview>
  <metadata
     id="metadata7">
    <rdf:RDF>
      <cc:Work
         rdf:about="">
        <dc:format>image/svg+xml</dc:format>
        <dc:type
           rdf:resource="http://purl.org/dc/dcmitype/StillImage" />
        <dc:title></dc:title>
      </cc:Work>
    </rdf:RDF>
  </metadata>
  <g
     inkscape:label="Layer 1"
     inkscape:groupmode="layer"
     id="layer1"
     transform="translate(182.8437,-346)">
    <path
       style="fill:#000000;stroke:none"
       d="m 511.875,346 c -2.20633,0 -4.39704,0.75299 -5.28125,2.28125 L 499,361.40625 c -1.53854,2.6592 -1.5,6.02154 -1.5,9.09375 l 0,27.28125 -34.34375,0 -6.78125,15.03125 -3.15625,5.46875 -82.5,0.0937 -0.0312,3.71875 -24.21875,30.75 -92.90625,0 -4.40625,7.5 -432,-2.96875 0,14.28125 420,9.25 -9.875,16.875 0,38.90625 5.5625,-4.0625 103.53125,0 L 347,569 l 2.5,-10.09375 7.59375,0 12.0625,12.0625 -0.4375,43 c -23.05525,6.03121 -32.17931,-3.05438 -40.40625,-7.09375 -6.71484,9.9151 -22.04753,20.22595 -34.34375,29.3125 l -46.46875,0 -7.09375,5.03125 -38.375,0 -23.09375,41.96875 c -13.54774,-3.21931 -12.17944,-14.65454 -7.21875,-20.25 l -3.53125,-7.5625 c -14.69451,10.37444 -17.84094,22.97691 -16.8125,36.375 l -9.4375,0 -0.90625,1.5625 -15.28125,0 0,5 -38.375,0 0,4.53125 38.375,0 0,3.03125 15.15625,0 1.6875,2.9375 11.71875,0 c 1.03104,4.40024 2.13514,8.82042 3.15625,13.21875 -111.988726,-9.26548 -205.603573,-1.0597 -211,90.9375 l 38.375,18.53125 17.1875,58.21875 34.34375,32.34375 195.13156,89.6691 c 3.85325,1.7707 6.6147,2.2372 10.67751,2.2372 l 1028.15973,0 c 3.7205,0 6.4112,-0.5415 9.75,-1.8438 l 208.875,-81.5 36.75,-23.25 14.2812,-40.71875 4.9688,-47.625 0.5624,0 -28.2812,-28.3125 25.25,-38.375 -38.375,-19.1875 9.0938,-14.15625 17.1562,0 2.0312,-140.40625 -6.375,0 c -0.2764,-3.50187 -3.1746,-6.21875 -6.75,-6.21875 -3.5753,0 -6.4735,2.71688 -6.75,6.21875 l -96.125,0 c -0.2764,-3.50187 -3.1746,-6.21875 -6.75,-6.21875 -3.575,0 -6.4731,2.71729 -6.75,6.21875 l -26.0624,0 L 1336.4375,619 c -53.2608,-36.66275 -103.922,-39.375 -154.5625,-39.375 l -78.4688,0 c -0.8452,-2.23535 -2.6165,-3.78125 -4.6562,-3.78125 -2.0397,0 -3.811,1.5459 -4.6562,3.78125 l -58.375,0 c -0.8453,-2.23535 -2.6166,-3.78125 -4.6563,-3.78125 -2.0379,0 -3.7789,1.54922 -4.625,3.78125 l -23.5625,0 c -0.8453,-2.23535 -2.5853,-3.78125 -4.625,-3.78125 -2.03974,0 -3.81099,1.5459 -4.65625,3.78125 l -118.59375,0 -3.71875,-13.84375 28.71875,0 -22.8125,-60.09375 5.46875,-2.03125 c 4.23477,-1.57992 6.40826,-6.27936 4.875,-10.53125 -1.53326,-4.25189 -6.17148,-6.39242 -10.40625,-4.8125 l -5.75,2.125 -10.0625,-26.46875 20.5625,-7.59375 c 4.61928,-1.70558 1.92511,-6.48679 -2.03125,-5.0625 l -20.53125,7.375 -20.03125,-52.75 -12.40625,0 C 817.31221,385.03869 796.23539,370.5 771.75,370.5 c -24.48539,0 -45.56221,14.53869 -55.125,35.4375 l -18.65625,0 0,-1.78125 c 0,-5.30952 -4.25298,-9.59375 -9.5625,-9.59375 -5.30952,0 -9.59375,4.28423 -9.59375,9.59375 l 0,1.78125 -89.21875,0 -4.71875,-8.15625 -22.03125,0 c -0.10958,-5.17538 -3.15682,-9.28125 -6.9375,-9.28125 -3.78068,0 -6.85917,4.10587 -6.96875,9.28125 l -22.65625,0 0,-27.28125 c 0,-3.07221 0.0385,-6.43455 -1.5,-9.09375 l -7.59375,-13.125 C 516.30329,346.75298 514.08133,346 511.875,346 z M 109.46875,892.09375 145.5,906.375 c 0.51369,8.43589 2.01129,16.61318 4.375,24.40625 -2.15231,-1.99489 -5.92059,-3.10477 -7.96875,-1.6875 l -12.46875,8.625 c -2.5268,1.74791 -3.90747,4.8154 -5.21875,7.59375 l -4.1875,8.8125 L 71.9375,931.46875 77,920.71875 c 1.31128,-2.77835 2.78758,-5.78227 2.53125,-8.84375 l 0,-0.0937 c 11.095198,-4.85269 21.19754,-11.54848 29.9375,-19.6875 z m 248.75,14.5625 46.03125,0 c 3.27469,55.91127 49.64222,100.24995 106.375,100.24995 18.393,0 35.71209,-4.6719 50.8125,-12.87495 -0.0304,0.89333 -0.0312,1.78688 -0.0312,2.65625 l 0,10.6875 -148.5,0 0,-10.6875 c 0,-3.07225 0.0385,-6.43455 -1.5,-9.09375 l -7.59375,-13.125 c -1.76842,-3.05653 -8.82533,-3.05653 -10.59375,0 l -7.59375,13.125 c -1.53854,2.6592 -1.5,6.0215 -1.5,9.09375 l 0,10.6875 -58.09375,0 0,-10.6875 c 0,-3.07225 0.0385,-6.43455 -1.5,-9.09375 l -3.75,-6.5 c 21.41199,-18.16568 35.54403,-44.63609 37.4375,-74.4375 z m 258.78125,0 59.40625,0 c 3.27494,55.91103 49.64239,100.24995 106.375,100.24995 17.00109,0 33.05236,-3.9818 47.3125,-11.06245 -5.5e-4,0.28043 0,0.5673 0,0.84375 l 0,10.6875 -150.53125,0 0,-10.6875 c 0,-3.07225 0.0385,-6.43455 -1.5,-9.09375 l -7.59375,-13.125 c -1.76842,-3.05653 -8.82533,-3.05653 -10.59375,0 l -7.59375,13.125 c -1.53854,2.6592 -1.5,6.0215 -1.5,9.09375 l 0,10.6875 -60.59375,0 0,-10.6875 c 0,-3.07225 0.0385,-6.43455 -1.5,-9.09375 l -5.40625,-9.3125 C 602.70428,960.17042 615.34606,934.89294 617,906.65625 z m 272.15625,0 25.09375,0 c 3.27469,55.91127 49.64222,100.24995 106.375,100.24995 56.7326,0 103.1001,-44.33892 106.375,-100.24995 l 22.3125,0 c 2.1293,31.35693 17.6871,59.0315 40.9687,77.3125 l -2.0937,3.625 c -1.5385,2.6592 -1.5,6.0215 -1.5,9.09375 l 0,10.6875 -57.8125,0 0,-10.6875 c 0,-3.07225 0.039,-6.43455 -1.5,-9.09375 l -7.5938,-13.125 c -1.7683,-3.05653 -8.8253,-3.05653 -10.5937,0 l -7.5937,13.125 c -1.5386,2.6592 -1.5,6.0215 -1.5,9.09375 l 0,10.6875 -148.37505,0 0,-10.6875 c 0,-3.07225 0.0385,-6.43455 -1.5,-9.09375 l -7.59375,-13.125 c -1.76842,-3.05653 -8.82533,-3.05653 -10.59375,0 l -7.59375,13.125 c -1.53854,2.6592 -1.5,6.0215 -1.5,9.09375 l 0,10.6875 -64.0625,0 0,-10.6875 c 0,-3.07225 0.0385,-6.43455 -1.5,-9.09375 l -4.1875,-7.25 c 20.70138,-18.22785 34.2515,-44.36755 35.96875,-73.6875 z m 474.93755,0 30.8437,0 c 18.1957,14.08168 41.024,22.46875 65.8125,22.46875 8.3391,0 16.4571,-0.95536 24.25,-2.75 l -89.1562,34.34375 -4.2188,-10.59375 c -1.128,-2.85767 -2.3108,-5.99786 -4.7188,-7.90625 l -11.875,-9.4375 c -2.7671,-2.19375 -9.3523,0.4139 -9.875,3.90625 l -2.2187,15 c -0.4547,3.03835 0.8095,6.14233 1.9375,9 l 4.0938,10.375 -66.2813,25.53125 c 34.3352,-16.249 58.702,-50.11505 61.4063,-89.9375 z M 151.71875,936.25 c 6.9988,19.22529 19.37869,35.85382 35.3125,48.09375 l -40.8125,-18.25 4.03125,-8.5 c 1.31128,-2.77835 2.75633,-5.78227 2.5,-8.84375 z M 297.25,996.28125 c 10e-6,0.13414 0,0.27312 0,0.40625 l 0,10.6875 -58.6875,0 -6.25,-2.7812 c 6.34709,1.1786 12.87391,1.7812 19.5625,1.7812 16.22074,0 31.61254,-3.6114 45.375,-10.09375 z m 918.2188,2.4375 c 12.274,5.09455 25.7087,7.96795 39.7812,8.15625 l -0.7812,0.5 -39,0 z"
       id="path2998"
       inkscape:connector-curvature="0"
       sodipodi:nodetypes="ssssccccccccccccccccccccccccccccccccccccccccccccccssscccccccccccccsccscccscsccsccsccccccsccccccccsccsssccccsccssssccccccccccccccscsccssssssccscccccscsccssssssccscccccsccccsccsccscsccssssssccscccccsccccccccccccccccccscccscccccc" />
  </g>
</svg>
